<mxfile host="Electron" modified="2023-12-22T18:10:49.224Z" agent="Mozilla/5.0 (Windows NT 10.0; Win64; x64) AppleWebKit/537.36 (KHTML, like Gecko) draw.io/22.1.2 Chrome/114.0.5735.289 Electron/25.9.4 Safari/537.36" etag="TjHIK2r825FDo6VUUKoO" version="22.1.2" type="device">
  <diagram name="Страница — 1" id="ASMHVD7cCMHqZIqDP3U6">
    <mxGraphModel dx="2160" dy="4239" grid="1" gridSize="10" guides="1" tooltips="1" connect="1" arrows="1" fold="1" page="1" pageScale="1" pageWidth="827" pageHeight="1169" math="0" shadow="0">
      <root>
        <mxCell id="0" />
        <mxCell id="1" parent="0" />
        <mxCell id="yzAGvVbNK6-Ho5fWkmY6-1" value="" style="ellipse;whiteSpace=wrap;html=1;fillColor=#000000;" vertex="1" parent="1">
          <mxGeometry x="40" y="200" width="40" height="40" as="geometry" />
        </mxCell>
        <mxCell id="yzAGvVbNK6-Ho5fWkmY6-2" value="" style="endArrow=classic;html=1;rounded=0;exitX=1;exitY=0.5;exitDx=0;exitDy=0;" edge="1" parent="1" source="yzAGvVbNK6-Ho5fWkmY6-1">
          <mxGeometry width="50" height="50" relative="1" as="geometry">
            <mxPoint x="280" y="400" as="sourcePoint" />
            <mxPoint x="159.9999999999999" y="220" as="targetPoint" />
          </mxGeometry>
        </mxCell>
        <mxCell id="yzAGvVbNK6-Ho5fWkmY6-4" value="&lt;font style=&quot;font-size: 20px;&quot;&gt;АВТОРИЗАЦИЯ&lt;/font&gt;" style="swimlane;fontStyle=0;childLayout=stackLayout;horizontal=1;startSize=26;fillColor=none;horizontalStack=0;resizeParent=1;resizeParentMax=0;resizeLast=0;collapsible=1;marginBottom=0;whiteSpace=wrap;html=1;" vertex="1" parent="1">
          <mxGeometry x="160" y="175" width="210" height="90" as="geometry">
            <mxRectangle x="160" y="188" width="190" height="40" as="alternateBounds" />
          </mxGeometry>
        </mxCell>
        <mxCell id="yzAGvVbNK6-Ho5fWkmY6-5" value="&lt;font style=&quot;font-size: 20px;&quot;&gt;- Войти&lt;br&gt;- Регистрация&lt;br&gt;&lt;/font&gt;" style="text;strokeColor=none;fillColor=none;align=left;verticalAlign=top;spacingLeft=4;spacingRight=4;overflow=hidden;rotatable=0;points=[[0,0.5],[1,0.5]];portConstraint=eastwest;whiteSpace=wrap;html=1;" vertex="1" parent="yzAGvVbNK6-Ho5fWkmY6-4">
          <mxGeometry y="26" width="210" height="64" as="geometry" />
        </mxCell>
        <mxCell id="yzAGvVbNK6-Ho5fWkmY6-8" value="&lt;font style=&quot;font-size: 20px;&quot;&gt;РЕГИСТРАЦИЯ&lt;/font&gt;" style="swimlane;fontStyle=0;childLayout=stackLayout;horizontal=1;startSize=26;fillColor=none;horizontalStack=0;resizeParent=1;resizeParentMax=0;resizeLast=0;collapsible=1;marginBottom=0;whiteSpace=wrap;html=1;" vertex="1" parent="1">
          <mxGeometry x="120" y="440" width="400" height="160" as="geometry">
            <mxRectangle x="160" y="188" width="190" height="40" as="alternateBounds" />
          </mxGeometry>
        </mxCell>
        <mxCell id="yzAGvVbNK6-Ho5fWkmY6-9" value="&lt;font style=&quot;font-size: 21px;&quot;&gt;- Ввести Кампания, телефон, ИНН, расчётный счёт, город, логин и пароль&lt;br&gt;- Регистрация&lt;br&gt;- Вернуться назад&lt;br&gt;&lt;br&gt;&lt;/font&gt;" style="text;strokeColor=none;fillColor=none;align=left;verticalAlign=top;spacingLeft=4;spacingRight=4;overflow=hidden;rotatable=0;points=[[0,0.5],[1,0.5]];portConstraint=eastwest;whiteSpace=wrap;html=1;" vertex="1" parent="yzAGvVbNK6-Ho5fWkmY6-8">
          <mxGeometry y="26" width="400" height="134" as="geometry" />
        </mxCell>
        <mxCell id="yzAGvVbNK6-Ho5fWkmY6-13" value="" style="curved=1;endArrow=classic;html=1;rounded=0;entryX=0.225;entryY=0.008;entryDx=0;entryDy=0;exitX=0.254;exitY=1.015;exitDx=0;exitDy=0;exitPerimeter=0;entryPerimeter=0;" edge="1" parent="1" source="yzAGvVbNK6-Ho5fWkmY6-5" target="yzAGvVbNK6-Ho5fWkmY6-8">
          <mxGeometry width="50" height="50" relative="1" as="geometry">
            <mxPoint x="220" y="350" as="sourcePoint" />
            <mxPoint x="290" y="330" as="targetPoint" />
            <Array as="points">
              <mxPoint x="190" y="290" />
              <mxPoint x="220" y="340" />
              <mxPoint x="240" y="400" />
            </Array>
          </mxGeometry>
        </mxCell>
        <mxCell id="yzAGvVbNK6-Ho5fWkmY6-14" value="&lt;font style=&quot;font-size: 15px;&quot;&gt;Нажата кнопка Регистрация&lt;/font&gt;" style="text;html=1;strokeColor=none;fillColor=none;align=center;verticalAlign=middle;whiteSpace=wrap;rounded=0;" vertex="1" parent="1">
          <mxGeometry x="130" y="360" width="100" height="40" as="geometry" />
        </mxCell>
        <mxCell id="yzAGvVbNK6-Ho5fWkmY6-15" value="" style="curved=1;endArrow=none;html=1;rounded=0;entryX=0.225;entryY=0.008;entryDx=0;entryDy=0;exitX=0.254;exitY=1.015;exitDx=0;exitDy=0;exitPerimeter=0;entryPerimeter=0;startArrow=classic;startFill=1;endFill=0;" edge="1" parent="1">
          <mxGeometry width="50" height="50" relative="1" as="geometry">
            <mxPoint x="333" y="265" as="sourcePoint" />
            <mxPoint x="330" y="440" as="targetPoint" />
            <Array as="points">
              <mxPoint x="310" y="289" />
              <mxPoint x="340" y="339" />
              <mxPoint x="360" y="399" />
            </Array>
          </mxGeometry>
        </mxCell>
        <mxCell id="yzAGvVbNK6-Ho5fWkmY6-16" value="&lt;font style=&quot;font-size: 15px;&quot;&gt;Нажата кнопка Подтвердить&lt;/font&gt;" style="text;html=1;strokeColor=none;fillColor=none;align=center;verticalAlign=middle;whiteSpace=wrap;rounded=0;" vertex="1" parent="1">
          <mxGeometry x="350" y="360" width="100" height="40" as="geometry" />
        </mxCell>
        <mxCell id="yzAGvVbNK6-Ho5fWkmY6-17" value="&lt;font style=&quot;font-size: 20px;&quot;&gt;ОКНО КЛИЕНТА&lt;/font&gt;" style="swimlane;fontStyle=0;childLayout=stackLayout;horizontal=1;startSize=26;fillColor=none;horizontalStack=0;resizeParent=1;resizeParentMax=0;resizeLast=0;collapsible=1;marginBottom=0;whiteSpace=wrap;html=1;" vertex="1" parent="1">
          <mxGeometry x="880" y="160" width="400" height="160" as="geometry">
            <mxRectangle x="880" y="160" width="190" height="40" as="alternateBounds" />
          </mxGeometry>
        </mxCell>
        <mxCell id="yzAGvVbNK6-Ho5fWkmY6-18" value="&lt;font style=&quot;font-size: 25px;&quot;&gt;- Профиль&lt;br&gt;- Услуги&lt;br&gt;- История звонков&lt;br&gt;- Выход&lt;br&gt;&lt;br&gt;&lt;/font&gt;" style="text;strokeColor=none;fillColor=none;align=left;verticalAlign=top;spacingLeft=4;spacingRight=4;overflow=hidden;rotatable=0;points=[[0,0.5],[1,0.5]];portConstraint=eastwest;whiteSpace=wrap;html=1;" vertex="1" parent="yzAGvVbNK6-Ho5fWkmY6-17">
          <mxGeometry y="26" width="400" height="134" as="geometry" />
        </mxCell>
        <mxCell id="yzAGvVbNK6-Ho5fWkmY6-19" value="" style="endArrow=classic;html=1;rounded=0;exitX=0.999;exitY=0.142;exitDx=0;exitDy=0;exitPerimeter=0;entryX=-0.002;entryY=0.184;entryDx=0;entryDy=0;entryPerimeter=0;" edge="1" parent="1" source="yzAGvVbNK6-Ho5fWkmY6-5" target="yzAGvVbNK6-Ho5fWkmY6-18">
          <mxGeometry width="50" height="50" relative="1" as="geometry">
            <mxPoint x="640" y="265" as="sourcePoint" />
            <mxPoint x="690" y="215" as="targetPoint" />
          </mxGeometry>
        </mxCell>
        <mxCell id="yzAGvVbNK6-Ho5fWkmY6-22" value="" style="curved=1;endArrow=classic;html=1;rounded=0;entryX=1;entryY=0.5;entryDx=0;entryDy=0;exitX=0.003;exitY=0.419;exitDx=0;exitDy=0;exitPerimeter=0;" edge="1" parent="1" source="yzAGvVbNK6-Ho5fWkmY6-18" target="yzAGvVbNK6-Ho5fWkmY6-5">
          <mxGeometry width="50" height="50" relative="1" as="geometry">
            <mxPoint x="820" y="280" as="sourcePoint" />
            <mxPoint x="650" y="280" as="targetPoint" />
            <Array as="points">
              <mxPoint x="720" y="290" />
              <mxPoint x="480" y="270" />
            </Array>
          </mxGeometry>
        </mxCell>
        <mxCell id="yzAGvVbNK6-Ho5fWkmY6-23" value="&lt;font style=&quot;font-size: 15px;&quot;&gt;Авторизировался клиент&lt;/font&gt;" style="text;html=1;strokeColor=none;fillColor=none;align=center;verticalAlign=middle;whiteSpace=wrap;rounded=0;" vertex="1" parent="1">
          <mxGeometry x="540" y="170" width="210" height="40" as="geometry" />
        </mxCell>
        <mxCell id="yzAGvVbNK6-Ho5fWkmY6-24" value="&lt;font style=&quot;font-size: 15px;&quot;&gt;Нажата кнопка выход&lt;/font&gt;" style="text;html=1;strokeColor=none;fillColor=none;align=center;verticalAlign=middle;whiteSpace=wrap;rounded=0;" vertex="1" parent="1">
          <mxGeometry x="540" y="240" width="210" height="40" as="geometry" />
        </mxCell>
        <mxCell id="yzAGvVbNK6-Ho5fWkmY6-25" value="" style="endArrow=classic;html=1;rounded=0;exitX=0.098;exitY=1.032;exitDx=0;exitDy=0;exitPerimeter=0;entryX=1;entryY=0;entryDx=0;entryDy=0;" edge="1" parent="1" source="yzAGvVbNK6-Ho5fWkmY6-18" target="yzAGvVbNK6-Ho5fWkmY6-26">
          <mxGeometry width="50" height="50" relative="1" as="geometry">
            <mxPoint x="1040" y="570" as="sourcePoint" />
            <mxPoint x="1080" y="460" as="targetPoint" />
          </mxGeometry>
        </mxCell>
        <mxCell id="yzAGvVbNK6-Ho5fWkmY6-26" value="" style="ellipse;whiteSpace=wrap;html=1;" vertex="1" parent="1">
          <mxGeometry x="724" y="450" width="50" height="50" as="geometry" />
        </mxCell>
        <mxCell id="yzAGvVbNK6-Ho5fWkmY6-27" value="" style="ellipse;whiteSpace=wrap;html=1;fillColor=#000000;" vertex="1" parent="1">
          <mxGeometry x="734" y="460" width="30" height="30" as="geometry" />
        </mxCell>
        <mxCell id="yzAGvVbNK6-Ho5fWkmY6-28" value="&lt;span style=&quot;font-size: 15px;&quot;&gt;Окно закрыто&lt;/span&gt;" style="text;html=1;strokeColor=none;fillColor=none;align=center;verticalAlign=middle;whiteSpace=wrap;rounded=0;" vertex="1" parent="1">
          <mxGeometry x="670" y="380" width="210" height="40" as="geometry" />
        </mxCell>
        <mxCell id="yzAGvVbNK6-Ho5fWkmY6-30" value="&lt;font style=&quot;font-size: 20px;&quot;&gt;ОКНО ПРОФИЛЯ&lt;/font&gt;" style="swimlane;fontStyle=0;childLayout=stackLayout;horizontal=1;startSize=26;fillColor=none;horizontalStack=0;resizeParent=1;resizeParentMax=0;resizeLast=0;collapsible=1;marginBottom=0;whiteSpace=wrap;html=1;" vertex="1" parent="1">
          <mxGeometry x="880" y="-240" width="400" height="160" as="geometry">
            <mxRectangle x="880" y="160" width="190" height="40" as="alternateBounds" />
          </mxGeometry>
        </mxCell>
        <mxCell id="yzAGvVbNK6-Ho5fWkmY6-31" value="&lt;font style=&quot;font-size: 25px;&quot;&gt;- Личные данные&lt;br&gt;- Изменить личные данные&lt;br&gt;&lt;/font&gt;" style="text;strokeColor=none;fillColor=none;align=left;verticalAlign=top;spacingLeft=4;spacingRight=4;overflow=hidden;rotatable=0;points=[[0,0.5],[1,0.5]];portConstraint=eastwest;whiteSpace=wrap;html=1;" vertex="1" parent="yzAGvVbNK6-Ho5fWkmY6-30">
          <mxGeometry y="26" width="400" height="134" as="geometry" />
        </mxCell>
        <mxCell id="yzAGvVbNK6-Ho5fWkmY6-33" value="" style="curved=1;endArrow=classic;html=1;rounded=0;entryX=0.5;entryY=0;entryDx=0;entryDy=0;exitX=0.504;exitY=1.009;exitDx=0;exitDy=0;exitPerimeter=0;" edge="1" parent="1">
          <mxGeometry width="50" height="50" relative="1" as="geometry">
            <mxPoint x="1151.6" y="-78.7940000000001" as="sourcePoint" />
            <mxPoint x="1150" y="160" as="targetPoint" />
            <Array as="points">
              <mxPoint x="1210" />
              <mxPoint x="1210" y="90" />
            </Array>
          </mxGeometry>
        </mxCell>
        <mxCell id="yzAGvVbNK6-Ho5fWkmY6-34" value="" style="curved=1;endArrow=classic;html=1;rounded=0;entryX=0.202;entryY=1.015;entryDx=0;entryDy=0;entryPerimeter=0;exitX=0.25;exitY=0;exitDx=0;exitDy=0;" edge="1" parent="1" source="yzAGvVbNK6-Ho5fWkmY6-17" target="yzAGvVbNK6-Ho5fWkmY6-31">
          <mxGeometry width="50" height="50" relative="1" as="geometry">
            <mxPoint x="1030" y="150" as="sourcePoint" />
            <mxPoint x="960" y="60" as="targetPoint" />
            <Array as="points">
              <mxPoint x="930" y="100" />
              <mxPoint x="920" y="10" />
            </Array>
          </mxGeometry>
        </mxCell>
        <mxCell id="yzAGvVbNK6-Ho5fWkmY6-35" value="&lt;font style=&quot;font-size: 15px;&quot;&gt;Нажата кнопка&lt;br&gt;Профиль&lt;/font&gt;" style="text;html=1;strokeColor=none;fillColor=none;align=center;verticalAlign=middle;whiteSpace=wrap;rounded=0;" vertex="1" parent="1">
          <mxGeometry x="930" y="10" width="109" height="70" as="geometry" />
        </mxCell>
        <mxCell id="yzAGvVbNK6-Ho5fWkmY6-36" value="&lt;font style=&quot;font-size: 15px;&quot;&gt;Нажата кнопка&lt;br&gt;Главная&lt;br&gt;(Подтвердить)&lt;br&gt;&lt;/font&gt;" style="text;html=1;strokeColor=none;fillColor=none;align=center;verticalAlign=middle;whiteSpace=wrap;rounded=0;" vertex="1" parent="1">
          <mxGeometry x="1095" y="10" width="109" height="70" as="geometry" />
        </mxCell>
        <mxCell id="yzAGvVbNK6-Ho5fWkmY6-41" value="&lt;font style=&quot;font-size: 20px;&quot;&gt;ОКНО ИЗМЕНЕНИЕ ПАРОЛЯ&lt;/font&gt;" style="swimlane;fontStyle=0;childLayout=stackLayout;horizontal=1;startSize=26;fillColor=none;horizontalStack=0;resizeParent=1;resizeParentMax=0;resizeLast=0;collapsible=1;marginBottom=0;whiteSpace=wrap;html=1;" vertex="1" parent="1">
          <mxGeometry x="890" y="-480" width="400" height="80" as="geometry">
            <mxRectangle x="880" y="160" width="190" height="40" as="alternateBounds" />
          </mxGeometry>
        </mxCell>
        <mxCell id="yzAGvVbNK6-Ho5fWkmY6-42" value="&lt;font style=&quot;font-size: 25px;&quot;&gt;-Смена пароля&lt;br&gt;&lt;br&gt;&lt;/font&gt;" style="text;strokeColor=none;fillColor=none;align=left;verticalAlign=top;spacingLeft=4;spacingRight=4;overflow=hidden;rotatable=0;points=[[0,0.5],[1,0.5]];portConstraint=eastwest;whiteSpace=wrap;html=1;" vertex="1" parent="yzAGvVbNK6-Ho5fWkmY6-41">
          <mxGeometry y="26" width="400" height="54" as="geometry" />
        </mxCell>
        <mxCell id="yzAGvVbNK6-Ho5fWkmY6-43" value="" style="curved=1;endArrow=classic;html=1;rounded=0;entryX=0.202;entryY=1.015;entryDx=0;entryDy=0;entryPerimeter=0;exitX=0.25;exitY=0;exitDx=0;exitDy=0;" edge="1" parent="1" source="yzAGvVbNK6-Ho5fWkmY6-30">
          <mxGeometry width="50" height="50" relative="1" as="geometry">
            <mxPoint x="1020" y="-162" as="sourcePoint" />
            <mxPoint x="1001" y="-400" as="targetPoint" />
            <Array as="points">
              <mxPoint x="970" y="-250" />
              <mxPoint x="970" y="-340" />
            </Array>
          </mxGeometry>
        </mxCell>
        <mxCell id="yzAGvVbNK6-Ho5fWkmY6-44" value="" style="curved=1;endArrow=none;html=1;rounded=0;entryX=0.202;entryY=1.015;entryDx=0;entryDy=0;entryPerimeter=0;exitX=0.675;exitY=0;exitDx=0;exitDy=0;exitPerimeter=0;endFill=0;startArrow=classic;startFill=1;" edge="1" parent="1" source="yzAGvVbNK6-Ho5fWkmY6-30">
          <mxGeometry width="50" height="50" relative="1" as="geometry">
            <mxPoint x="1140" y="-240" as="sourcePoint" />
            <mxPoint x="1161" y="-400" as="targetPoint" />
            <Array as="points">
              <mxPoint x="1191" y="-320" />
            </Array>
          </mxGeometry>
        </mxCell>
        <mxCell id="yzAGvVbNK6-Ho5fWkmY6-45" value="&lt;font style=&quot;font-size: 15px;&quot;&gt;Нажата кнопка&lt;br&gt;Подтвердить&lt;br&gt;(Отмена)&lt;br&gt;&lt;/font&gt;" style="text;html=1;strokeColor=none;fillColor=none;align=center;verticalAlign=middle;whiteSpace=wrap;rounded=0;" vertex="1" parent="1">
          <mxGeometry x="1171" y="-350" width="119" height="70" as="geometry" />
        </mxCell>
        <mxCell id="yzAGvVbNK6-Ho5fWkmY6-46" value="&lt;font style=&quot;font-size: 15px;&quot;&gt;Нажата кнопка&lt;br&gt;Изменить пароль&lt;br&gt;&lt;/font&gt;" style="text;html=1;strokeColor=none;fillColor=none;align=center;verticalAlign=middle;whiteSpace=wrap;rounded=0;" vertex="1" parent="1">
          <mxGeometry x="860" y="-350" width="109" height="70" as="geometry" />
        </mxCell>
        <mxCell id="yzAGvVbNK6-Ho5fWkmY6-47" value="&lt;font style=&quot;font-size: 20px;&quot;&gt;ОКНО УСЛУГИ&lt;/font&gt;" style="swimlane;fontStyle=0;childLayout=stackLayout;horizontal=1;startSize=26;fillColor=none;horizontalStack=0;resizeParent=1;resizeParentMax=0;resizeLast=0;collapsible=1;marginBottom=0;whiteSpace=wrap;html=1;" vertex="1" parent="1">
          <mxGeometry x="949.5" y="500" width="400" height="130" as="geometry">
            <mxRectangle x="880" y="160" width="190" height="40" as="alternateBounds" />
          </mxGeometry>
        </mxCell>
        <mxCell id="yzAGvVbNK6-Ho5fWkmY6-48" value="&lt;font style=&quot;font-size: 25px;&quot;&gt;- Информация (инструкция)&lt;br&gt;- Условия&lt;br&gt;- Подать заявку&lt;br&gt;&lt;/font&gt;" style="text;strokeColor=none;fillColor=none;align=left;verticalAlign=top;spacingLeft=4;spacingRight=4;overflow=hidden;rotatable=0;points=[[0,0.5],[1,0.5]];portConstraint=eastwest;whiteSpace=wrap;html=1;" vertex="1" parent="yzAGvVbNK6-Ho5fWkmY6-47">
          <mxGeometry y="26" width="400" height="104" as="geometry" />
        </mxCell>
        <mxCell id="yzAGvVbNK6-Ho5fWkmY6-49" value="&lt;font style=&quot;font-size: 15px;&quot;&gt;Нажата кнопка&lt;br&gt;Услуги&lt;br&gt;&lt;/font&gt;" style="text;html=1;strokeColor=none;fillColor=none;align=center;verticalAlign=middle;whiteSpace=wrap;rounded=0;" vertex="1" parent="1">
          <mxGeometry x="1220" y="390" width="109" height="70" as="geometry" />
        </mxCell>
        <mxCell id="yzAGvVbNK6-Ho5fWkmY6-50" value="&lt;font style=&quot;font-size: 15px;&quot;&gt;Нажата кнопка&lt;br&gt;Главная&lt;br&gt;&lt;/font&gt;" style="text;html=1;strokeColor=none;fillColor=none;align=center;verticalAlign=middle;whiteSpace=wrap;rounded=0;" vertex="1" parent="1">
          <mxGeometry x="1010" y="390" width="109" height="70" as="geometry" />
        </mxCell>
        <mxCell id="yzAGvVbNK6-Ho5fWkmY6-51" value="" style="curved=1;endArrow=classic;html=1;rounded=0;entryX=0.202;entryY=1.015;entryDx=0;entryDy=0;entryPerimeter=0;" edge="1" parent="1">
          <mxGeometry width="50" height="50" relative="1" as="geometry">
            <mxPoint x="1030" y="498" as="sourcePoint" />
            <mxPoint x="1041" y="320" as="targetPoint" />
            <Array as="points">
              <mxPoint x="1010" y="498" />
              <mxPoint x="1000" y="408" />
            </Array>
          </mxGeometry>
        </mxCell>
        <mxCell id="yzAGvVbNK6-Ho5fWkmY6-52" value="" style="curved=1;endArrow=classic;html=1;rounded=0;entryX=0.5;entryY=0;entryDx=0;entryDy=0;" edge="1" parent="1">
          <mxGeometry width="50" height="50" relative="1" as="geometry">
            <mxPoint x="1205.5" y="320" as="sourcePoint" />
            <mxPoint x="1160" y="499.4" as="targetPoint" />
            <Array as="points">
              <mxPoint x="1220" y="339.4" />
              <mxPoint x="1220" y="429.4" />
            </Array>
          </mxGeometry>
        </mxCell>
        <mxCell id="yzAGvVbNK6-Ho5fWkmY6-53" value="&lt;font style=&quot;font-size: 20px;&quot;&gt;ОКНО УСЛОВИЯ&lt;/font&gt;" style="swimlane;fontStyle=0;childLayout=stackLayout;horizontal=1;startSize=26;fillColor=none;horizontalStack=0;resizeParent=1;resizeParentMax=0;resizeLast=0;collapsible=1;marginBottom=0;whiteSpace=wrap;html=1;" vertex="1" parent="1">
          <mxGeometry x="827" y="770" width="250" height="70" as="geometry">
            <mxRectangle x="880" y="160" width="190" height="40" as="alternateBounds" />
          </mxGeometry>
        </mxCell>
        <mxCell id="yzAGvVbNK6-Ho5fWkmY6-54" value="&lt;font style=&quot;font-size: 25px;&quot;&gt;- Инструкция&lt;br&gt;&lt;/font&gt;" style="text;strokeColor=none;fillColor=none;align=left;verticalAlign=top;spacingLeft=4;spacingRight=4;overflow=hidden;rotatable=0;points=[[0,0.5],[1,0.5]];portConstraint=eastwest;whiteSpace=wrap;html=1;" vertex="1" parent="yzAGvVbNK6-Ho5fWkmY6-53">
          <mxGeometry y="26" width="250" height="44" as="geometry" />
        </mxCell>
        <mxCell id="yzAGvVbNK6-Ho5fWkmY6-57" value="" style="curved=1;endArrow=classic;html=1;rounded=0;" edge="1" parent="1">
          <mxGeometry width="50" height="50" relative="1" as="geometry">
            <mxPoint x="1016.5" y="630" as="sourcePoint" />
            <mxPoint x="1000" y="770" as="targetPoint" />
            <Array as="points">
              <mxPoint x="1031" y="649.4" />
              <mxPoint x="1021" y="730" />
            </Array>
          </mxGeometry>
        </mxCell>
        <mxCell id="yzAGvVbNK6-Ho5fWkmY6-58" value="&lt;font style=&quot;font-size: 15px;&quot;&gt;Нажата кнопка&lt;br&gt;Условия&lt;br&gt;&lt;/font&gt;" style="text;html=1;strokeColor=none;fillColor=none;align=center;verticalAlign=middle;whiteSpace=wrap;rounded=0;" vertex="1" parent="1">
          <mxGeometry x="910" y="670" width="109" height="70" as="geometry" />
        </mxCell>
        <mxCell id="yzAGvVbNK6-Ho5fWkmY6-59" value="" style="curved=1;endArrow=classic;html=1;rounded=0;entryX=0.202;entryY=1.015;entryDx=0;entryDy=0;entryPerimeter=0;exitX=0.858;exitY=-0.006;exitDx=0;exitDy=0;exitPerimeter=0;" edge="1" parent="1" source="yzAGvVbNK6-Ho5fWkmY6-53">
          <mxGeometry width="50" height="50" relative="1" as="geometry">
            <mxPoint x="1060" y="808" as="sourcePoint" />
            <mxPoint x="1071" y="630" as="targetPoint" />
            <Array as="points">
              <mxPoint x="1030" y="718" />
            </Array>
          </mxGeometry>
        </mxCell>
        <mxCell id="yzAGvVbNK6-Ho5fWkmY6-60" value="&lt;font style=&quot;font-size: 15px;&quot;&gt;Нажата кнопка&lt;br&gt;Назад&lt;br&gt;&lt;/font&gt;" style="text;html=1;strokeColor=none;fillColor=none;align=center;verticalAlign=middle;whiteSpace=wrap;rounded=0;" vertex="1" parent="1">
          <mxGeometry x="1050" y="680" width="109" height="70" as="geometry" />
        </mxCell>
        <mxCell id="yzAGvVbNK6-Ho5fWkmY6-61" value="" style="endArrow=classic;html=1;rounded=0;exitX=0.934;exitY=1.024;exitDx=0;exitDy=0;exitPerimeter=0;entryX=0.562;entryY=-0.038;entryDx=0;entryDy=0;entryPerimeter=0;" edge="1" parent="1" source="yzAGvVbNK6-Ho5fWkmY6-48" target="yzAGvVbNK6-Ho5fWkmY6-66">
          <mxGeometry width="50" height="50" relative="1" as="geometry">
            <mxPoint x="1140" y="690" as="sourcePoint" />
            <mxPoint x="1264" y="720" as="targetPoint" />
          </mxGeometry>
        </mxCell>
        <mxCell id="yzAGvVbNK6-Ho5fWkmY6-62" value="&lt;font style=&quot;font-size: 15px;&quot;&gt;Нажата кнопка&lt;br&gt;Подать заявку&lt;br&gt;&lt;/font&gt;" style="text;html=1;strokeColor=none;fillColor=none;align=center;verticalAlign=middle;whiteSpace=wrap;rounded=0;" vertex="1" parent="1">
          <mxGeometry x="1349.5" y="670" width="109" height="70" as="geometry" />
        </mxCell>
        <mxCell id="yzAGvVbNK6-Ho5fWkmY6-63" value="" style="ellipse;whiteSpace=wrap;html=1;" vertex="1" parent="1">
          <mxGeometry x="1319.5" y="910" width="50" height="50" as="geometry" />
        </mxCell>
        <mxCell id="yzAGvVbNK6-Ho5fWkmY6-64" value="" style="ellipse;whiteSpace=wrap;html=1;fillColor=#000000;" vertex="1" parent="1">
          <mxGeometry x="1329.5" y="920" width="30" height="30" as="geometry" />
        </mxCell>
        <mxCell id="yzAGvVbNK6-Ho5fWkmY6-65" value="&lt;font style=&quot;font-size: 15px;&quot;&gt;Ждете звонок опрератора&lt;br&gt;&lt;/font&gt;" style="text;html=1;strokeColor=none;fillColor=none;align=center;verticalAlign=middle;whiteSpace=wrap;rounded=0;" vertex="1" parent="1">
          <mxGeometry x="1290" y="960" width="109" height="60" as="geometry" />
        </mxCell>
        <mxCell id="yzAGvVbNK6-Ho5fWkmY6-66" value="&lt;font style=&quot;font-size: 20px;&quot;&gt;ОКНО ПРИНЯТИЯ ЗАЯВКИ&lt;/font&gt;" style="swimlane;fontStyle=0;childLayout=stackLayout;horizontal=1;startSize=26;fillColor=none;horizontalStack=0;resizeParent=1;resizeParentMax=0;resizeLast=0;collapsible=1;marginBottom=0;whiteSpace=wrap;html=1;" vertex="1" parent="1">
          <mxGeometry x="1180" y="770" width="289" height="70" as="geometry">
            <mxRectangle x="880" y="160" width="190" height="40" as="alternateBounds" />
          </mxGeometry>
        </mxCell>
        <mxCell id="yzAGvVbNK6-Ho5fWkmY6-67" value="&lt;font style=&quot;font-size: 25px;&quot;&gt;- Принятие заявки&lt;br&gt;&lt;/font&gt;" style="text;strokeColor=none;fillColor=none;align=left;verticalAlign=top;spacingLeft=4;spacingRight=4;overflow=hidden;rotatable=0;points=[[0,0.5],[1,0.5]];portConstraint=eastwest;whiteSpace=wrap;html=1;" vertex="1" parent="yzAGvVbNK6-Ho5fWkmY6-66">
          <mxGeometry y="26" width="289" height="44" as="geometry" />
        </mxCell>
        <mxCell id="yzAGvVbNK6-Ho5fWkmY6-68" value="" style="endArrow=none;html=1;rounded=0;exitX=0.875;exitY=1.031;exitDx=0;exitDy=0;exitPerimeter=0;startArrow=classic;startFill=1;endFill=0;" edge="1" parent="1" source="yzAGvVbNK6-Ho5fWkmY6-48" target="yzAGvVbNK6-Ho5fWkmY6-66">
          <mxGeometry width="50" height="50" relative="1" as="geometry">
            <mxPoint x="1345" y="644" as="sourcePoint" />
            <mxPoint x="1370" y="777" as="targetPoint" />
          </mxGeometry>
        </mxCell>
        <mxCell id="yzAGvVbNK6-Ho5fWkmY6-69" value="&lt;font style=&quot;font-size: 15px;&quot;&gt;Нажата кнопка&lt;br&gt;Назад&lt;br&gt;&lt;/font&gt;" style="text;html=1;strokeColor=none;fillColor=none;align=center;verticalAlign=middle;whiteSpace=wrap;rounded=0;" vertex="1" parent="1">
          <mxGeometry x="1204" y="690" width="109" height="70" as="geometry" />
        </mxCell>
        <mxCell id="yzAGvVbNK6-Ho5fWkmY6-70" value="" style="endArrow=classic;html=1;rounded=0;exitX=0.934;exitY=1.024;exitDx=0;exitDy=0;exitPerimeter=0;entryX=0.5;entryY=0;entryDx=0;entryDy=0;" edge="1" parent="1" target="yzAGvVbNK6-Ho5fWkmY6-63">
          <mxGeometry width="50" height="50" relative="1" as="geometry">
            <mxPoint x="1340.5" y="840" as="sourcePoint" />
            <mxPoint x="1359.5" y="975" as="targetPoint" />
          </mxGeometry>
        </mxCell>
        <mxCell id="yzAGvVbNK6-Ho5fWkmY6-71" value="&lt;font style=&quot;font-size: 20px;&quot;&gt;ОКНО ИСТОРИЯ ЗАКАЗОВ&lt;/font&gt;" style="swimlane;fontStyle=0;childLayout=stackLayout;horizontal=1;startSize=26;fillColor=none;horizontalStack=0;resizeParent=1;resizeParentMax=0;resizeLast=0;collapsible=1;marginBottom=0;whiteSpace=wrap;html=1;" vertex="1" parent="1">
          <mxGeometry x="1600" y="160" width="400" height="100" as="geometry">
            <mxRectangle x="880" y="160" width="190" height="40" as="alternateBounds" />
          </mxGeometry>
        </mxCell>
        <mxCell id="yzAGvVbNK6-Ho5fWkmY6-72" value="&lt;font style=&quot;font-size: 25px;&quot;&gt;- Просмотр истории заказов&lt;br&gt;- Удаление истории заказов&amp;nbsp;&lt;br&gt;&lt;/font&gt;" style="text;strokeColor=none;fillColor=none;align=left;verticalAlign=top;spacingLeft=4;spacingRight=4;overflow=hidden;rotatable=0;points=[[0,0.5],[1,0.5]];portConstraint=eastwest;whiteSpace=wrap;html=1;" vertex="1" parent="yzAGvVbNK6-Ho5fWkmY6-71">
          <mxGeometry y="26" width="400" height="74" as="geometry" />
        </mxCell>
        <mxCell id="yzAGvVbNK6-Ho5fWkmY6-73" value="" style="curved=1;endArrow=classic;html=1;rounded=0;exitX=1;exitY=0.104;exitDx=0;exitDy=0;exitPerimeter=0;entryX=0.001;entryY=0.055;entryDx=0;entryDy=0;entryPerimeter=0;" edge="1" parent="1" source="yzAGvVbNK6-Ho5fWkmY6-18" target="yzAGvVbNK6-Ho5fWkmY6-72">
          <mxGeometry width="50" height="50" relative="1" as="geometry">
            <mxPoint x="1399" y="200" as="sourcePoint" />
            <mxPoint x="1449" y="150" as="targetPoint" />
            <Array as="points">
              <mxPoint x="1350" y="180" />
              <mxPoint x="1450" y="170" />
            </Array>
          </mxGeometry>
        </mxCell>
        <mxCell id="yzAGvVbNK6-Ho5fWkmY6-74" value="" style="curved=1;endArrow=none;html=1;rounded=0;exitX=1;exitY=0.104;exitDx=0;exitDy=0;exitPerimeter=0;entryX=0;entryY=0.5;entryDx=0;entryDy=0;endFill=0;startArrow=classic;startFill=1;" edge="1" parent="1" target="yzAGvVbNK6-Ho5fWkmY6-72">
          <mxGeometry width="50" height="50" relative="1" as="geometry">
            <mxPoint x="1280" y="250" as="sourcePoint" />
            <mxPoint x="1600" y="240" as="targetPoint" />
            <Array as="points">
              <mxPoint x="1350" y="260" />
              <mxPoint x="1460" y="260" />
            </Array>
          </mxGeometry>
        </mxCell>
        <mxCell id="yzAGvVbNK6-Ho5fWkmY6-75" value="&lt;font style=&quot;font-size: 15px;&quot;&gt;Нажата кнопка&lt;br&gt;Главная&lt;br&gt;&lt;/font&gt;" style="text;html=1;strokeColor=none;fillColor=none;align=center;verticalAlign=middle;whiteSpace=wrap;rounded=0;" vertex="1" parent="1">
          <mxGeometry x="1480" y="250" width="109" height="70" as="geometry" />
        </mxCell>
        <mxCell id="yzAGvVbNK6-Ho5fWkmY6-76" value="&lt;font style=&quot;font-size: 15px;&quot;&gt;Нажата кнопка&lt;br&gt;История звонков&lt;br&gt;&lt;/font&gt;" style="text;html=1;strokeColor=none;fillColor=none;align=center;verticalAlign=middle;whiteSpace=wrap;rounded=0;" vertex="1" parent="1">
          <mxGeometry x="1359.5" y="120" width="140.5" height="70" as="geometry" />
        </mxCell>
        <mxCell id="yzAGvVbNK6-Ho5fWkmY6-77" value="" style="curved=1;endArrow=classic;html=1;rounded=0;exitX=0.778;exitY=-0.027;exitDx=0;exitDy=0;exitPerimeter=0;entryX=0.827;entryY=-0.054;entryDx=0;entryDy=0;entryPerimeter=0;" edge="1" parent="1">
          <mxGeometry width="50" height="50" relative="1" as="geometry">
            <mxPoint x="1771.1999999999998" y="160.00000000000017" as="sourcePoint" />
            <mxPoint x="1790.7999999999997" y="157.2999999999999" as="targetPoint" />
            <Array as="points">
              <mxPoint x="1680" y="-7.3" />
              <mxPoint x="1830" y="-47.3" />
            </Array>
          </mxGeometry>
        </mxCell>
        <mxCell id="yzAGvVbNK6-Ho5fWkmY6-78" value="&lt;font style=&quot;font-size: 15px;&quot;&gt;Нажата кнопка&lt;br&gt;Удалить историю&lt;br&gt;&lt;/font&gt;" style="text;html=1;strokeColor=none;fillColor=none;align=center;verticalAlign=middle;whiteSpace=wrap;rounded=0;" vertex="1" parent="1">
          <mxGeometry x="1670" y="-90" width="190" height="70" as="geometry" />
        </mxCell>
      </root>
    </mxGraphModel>
  </diagram>
</mxfile>
